<svg aria-hidden="true" style="position: absolute; width: 0; height: 0; overflow: hidden;" version="1.1" xmlns="http://www.w3.org/2000/svg" xmlns:xlink="http://www.w3.org/1999/xlink">
<defs>

<symbol id="icon-close" viewBox="0 0 32 32">
<path   stroke-linejoin="round" stroke-linecap="round" stroke-miterlimit="4" stroke-width="2" d="M8 24l16-16M8 8l16 16"></path>
</symbol>

<symbol id="icon-eye-outline" viewBox="0 0 32 32">
<path d="M0.213 0.213l-0.213 0.214v1.835l5.704 5.71-0.608 0.544c-0.632 0.566-1.693 1.702-2.403 2.576-0.834 1.022-1.91 2.608-2.47 3.634l-0.222 0.406v1.794l0.328 0.563c1.241 2.101 2.658 3.915 4.279 5.525l0.002 0.001c1.693 1.686 3.133 2.75 4.976 3.672 1.405 0.735 3.041 1.258 4.773 1.473l0.070 0.007c0.763 0.093 2.477 0.077 3.253-0.030 2.151-0.288 4.093-0.98 5.817-2.001l-0.071 0.039 0.307-0.174 6.005 5.998h1.835l0.214-0.213 0.213-0.214v-1.838l-29.734-29.734h-1.838l-0.214 0.213zM14.778 3.792c-0.734 0.066-1.795 0.254-2.128 0.379-0.361 0.144-0.653 0.396-0.844 0.715l-0.004 0.008c-0.184 0.314-0.229 0.891-0.099 1.282 0.178 0.531 0.746 0.994 1.304 1.059 0.154 0.019 0.466-0.011 0.81-0.078 2.525-0.494 4.934-0.142 7.296 1.066 0.622 0.318 1.584 0.925 2.168 1.368 1.283 0.973 2.792 2.517 3.973 4.066 0.568 0.746 1.547 2.222 1.547 2.334 0 0.181-1.11 1.824-1.928 2.85-0.178 0.215-0.351 0.453-0.507 0.702l-0.016 0.028c-0.253 0.496-0.184 1.149 0.171 1.63 0.547 0.739 1.642 0.858 2.309 0.25 0.579-0.528 2.099-2.664 2.87-4.035l0.301-0.534v-1.806l-0.328-0.563c-0.419-0.718-1.28-2.010-1.795-2.693-1.474-1.949-3.381-3.858-5.050-5.053-1.427-1.022-3.080-1.874-4.587-2.358-1.287-0.419-2.768-0.661-4.306-0.661-0.407 0-0.81 0.017-1.209 0.050l0.052-0.003zM10.832 13.762c-0.327 0.694-0.518 1.508-0.518 2.367 0 0.526 0.072 1.035 0.205 1.518l-0.009-0.040c0.227 0.832 0.802 1.806 1.438 2.445 0.64 0.638 1.613 1.211 2.448 1.44 1.259 0.344 2.67 0.224 3.842-0.323l0.451-0.211 2.701 2.696-0.562 0.272c-1.141 0.554-2.645 0.962-4.029 1.093-2.718 0.258-5.629-0.704-8.213-2.717-1.214-0.947-2.56-2.314-3.667-3.728-0.55-0.702-1.72-2.445-1.72-2.562 0-0.099 0.667-1.158 1.168-1.851 0.917-1.249 1.894-2.349 2.963-3.351l0.013-0.012 0.619-0.566 3.080 3.080-0.211 0.451zM15.981 18.496c-0.307 0.021-0.872-0.112-1.218-0.288-0.738-0.374-1.27-1.275-1.27-2.152v-0.296l2.722 2.72-0.234 0.016z"></path>
</symbol>

<symbol id="icon-eye" viewBox="0 0 32 32">
<path d="M14.853 4.055c-2.996 0.267-5.828 1.499-8.56 3.723-0.717 0.583-2.387 2.256-3.044 3.049-0.875 1.043-1.708 2.199-2.454 3.414l-0.072 0.126c-0.963 1.597-0.963 1.669 0 3.267 0.842 1.371 1.697 2.553 2.63 3.667l-0.038-0.047c0.557 0.672 2.212 2.335 2.845 2.86 3.104 2.579 6.415 3.885 9.84 3.885 3.297 0 6.493-1.215 9.5-3.611 0.8-0.639 2.515-2.324 3.187-3.135 0.895-1.067 1.749-2.248 2.516-3.49l0.075-0.13c0.963-1.597 0.963-1.669 0-3.267-1.183-1.962-2.522-3.658-4.046-5.167l-0.002-0.002c-1.707-1.705-3.097-2.729-4.989-3.671-1.54-0.767-3.013-1.223-4.587-1.419-0.644-0.080-2.171-0.109-2.8-0.053zM16.991 6.723c3.692 0.36 7.205 2.589 10.297 6.537 0.423 0.54 1.604 2.267 1.775 2.595 0.093 0.18 0.101 0.163-0.596 1.225-2.485 3.785-5.659 6.527-8.813 7.613-1.185 0.408-2.069 0.576-3.28 0.623-1.364 0.052-2.469-0.112-3.864-0.575-3.255-1.077-6.437-3.795-8.976-7.661-0.697-1.061-0.689-1.047-0.596-1.224 0.173-0.329 1.16-1.787 1.599-2.363 3.664-4.808 8.060-7.197 12.455-6.771zM15.144 10.748c-1.504 0.235-2.953 1.217-3.719 2.523-0.472 0.779-0.752 1.721-0.752 2.727 0 2.226 1.367 4.133 3.307 4.928l0.036 0.013c0.588 0.244 1.271 0.385 1.987 0.385 2.224 0 4.13-1.366 4.923-3.304l0.013-0.035c0.244-0.587 0.386-1.268 0.386-1.983 0-0.713-0.141-1.394-0.398-2.015l0.013 0.035c-0.703-1.728-2.244-2.984-4.104-3.274l-0.030-0.004c-0.246-0.043-0.53-0.068-0.82-0.068-0.298 0-0.59 0.026-0.873 0.076l0.030-0.004zM16.697 13.431c1.002 0.287 1.753 1.115 1.923 2.14l0.002 0.016c0.133 0.871-0.125 1.657-0.752 2.285-0.535 0.537-1.141 0.795-1.871 0.795-0.687 0-1.283-0.237-1.796-0.713-1.773-1.648-0.619-4.613 1.796-4.613 0.191 0 0.504 0.041 0.697 0.091z"></path>
</symbol>

</defs>
</svg>