<svg aria-hidden="true" style="position: absolute; width: 0; height: 0; overflow: hidden;" version="1.1" xmlns="http://www.w3.org/2000/svg" xmlns:xlink="http://www.w3.org/1999/xlink">
<defs>

<symbol id="icon-close" viewBox="0 0 32 32">
<path   stroke-linejoin="round" stroke-linecap="round" stroke-miterlimit="4" stroke-width="2" d="M8 24l16-16M8 8l16 16"></path>
</symbol>

<symbol id="icon-eye-outline" viewBox="0 0 32 32">
<path d="M0.213 0.213l-0.213 0.214v1.835l5.704 5.71-0.608 0.544c-0.632 0.566-1.693 1.702-2.403 2.576-0.834 1.022-1.91 2.608-2.47 3.634l-0.222 0.406v1.794l0.328 0.563c1.241 2.101 2.658 3.915 4.279 5.525l0.002 0.001c1.693 1.686 3.133 2.75 4.976 3.672 1.405 0.735 3.041 1.258 4.773 1.473l0.070 0.007c0.763 0.093 2.477 0.077 3.253-0.030 2.151-0.288 4.093-0.98 5.817-2.001l-0.071 0.039 0.307-0.174 6.005 5.998h1.835l0.214-0.213 0.213-0.214v-1.838l-29.734-29.734h-1.838l-0.214 0.213zM14.778 3.792c-0.734 0.066-1.795 0.254-2.128 0.379-0.361 0.144-0.653 0.396-0.844 0.715l-0.004 0.008c-0.184 0.314-0.229 0.891-0.099 1.282 0.178 0.531 0.746 0.994 1.304 1.059 0.154 0.019 0.466-0.011 0.81-0.078 2.525-0.494 4.934-0.142 7.296 1.066 0.622 0.318 1.584 0.925 2.168 1.368 1.283 0.973 2.792 2.517 3.973 4.066 0.568 0.746 1.547 2.222 1.547 2.334 0 0.181-1.11 1.824-1.928 2.85-0.178 0.215-0.351 0.453-0.507 0.702l-0.016 0.028c-0.253 0.496-0.184 1.149 0.171 1.63 0.547 0.739 1.642 0.858 2.309 0.25 0.579-0.528 2.099-2.664 2.87-4.035l0.301-0.534v-1.806l-0.328-0.563c-0.419-0.718-1.28-2.010-1.795-2.693-1.474-1.949-3.381-3.858-5.050-5.053-1.427-1.022-3.080-1.874-4.587-2.358-1.287-0.419-2.768-0.661-4.306-0.661-0.407 0-0.81 0.017-1.209 0.050l0.052-0.003zM10.832 13.762c-0.327 0.694-0.518 1.508-0.518 2.367 0 0.526 0.072 1.035 0.205 1.518l-0.009-0.040c0.227 0.832 0.802 1.806 1.438 2.445 0.64 0.638 1.613 1.211 2.448 1.44 1.259 0.344 2.67 0.224 3.842-0.323l0.451-0.211 2.701 2.696-0.562 0.272c-1.141 0.554-2.645 0.962-4.029 1.093-2.718 0.258-5.629-0.704-8.213-2.717-1.214-0.947-2.56-2.314-3.667-3.728-0.55-0.702-1.72-2.445-1.72-2.562 0-0.099 0.667-1.158 1.168-1.851 0.917-1.249 1.894-2.349 2.963-3.351l0.013-0.012 0.619-0.566 3.080 3.080-0.211 0.451zM15.981 18.496c-0.307 0.021-0.872-0.112-1.218-0.288-0.738-0.374-1.27-1.275-1.27-2.152v-0.296l2.722 2.72-0.234 0.016z"></path>
</symbol>

<symbol id="icon-eye" viewBox="0 0 32 32">
<path d="M14.853 4.055c-2.996 0.267-5.828 1.499-8.56 3.723-0.717 0.583-2.387 2.256-3.044 3.049-0.875 1.043-1.708 2.199-2.454 3.414l-0.072 0.126c-0.963 1.597-0.963 1.669 0 3.267 0.842 1.371 1.697 2.553 2.63 3.667l-0.038-0.047c0.557 0.672 2.212 2.335 2.845 2.86 3.104 2.579 6.415 3.885 9.84 3.885 3.297 0 6.493-1.215 9.5-3.611 0.8-0.639 2.515-2.324 3.187-3.135 0.895-1.067 1.749-2.248 2.516-3.49l0.075-0.13c0.963-1.597 0.963-1.669 0-3.267-1.183-1.962-2.522-3.658-4.046-5.167l-0.002-0.002c-1.707-1.705-3.097-2.729-4.989-3.671-1.54-0.767-3.013-1.223-4.587-1.419-0.644-0.080-2.171-0.109-2.8-0.053zM16.991 6.723c3.692 0.36 7.205 2.589 10.297 6.537 0.423 0.54 1.604 2.267 1.775 2.595 0.093 0.18 0.101 0.163-0.596 1.225-2.485 3.785-5.659 6.527-8.813 7.613-1.185 0.408-2.069 0.576-3.28 0.623-1.364 0.052-2.469-0.112-3.864-0.575-3.255-1.077-6.437-3.795-8.976-7.661-0.697-1.061-0.689-1.047-0.596-1.224 0.173-0.329 1.16-1.787 1.599-2.363 3.664-4.808 8.060-7.197 12.455-6.771zM15.144 10.748c-1.504 0.235-2.953 1.217-3.719 2.523-0.472 0.779-0.752 1.721-0.752 2.727 0 2.226 1.367 4.133 3.307 4.928l0.036 0.013c0.588 0.244 1.271 0.385 1.987 0.385 2.224 0 4.13-1.366 4.923-3.304l0.013-0.035c0.244-0.587 0.386-1.268 0.386-1.983 0-0.713-0.141-1.394-0.398-2.015l0.013 0.035c-0.703-1.728-2.244-2.984-4.104-3.274l-0.030-0.004c-0.246-0.043-0.53-0.068-0.82-0.068-0.298 0-0.59 0.026-0.873 0.076l0.030-0.004zM16.697 13.431c1.002 0.287 1.753 1.115 1.923 2.14l0.002 0.016c0.133 0.871-0.125 1.657-0.752 2.285-0.535 0.537-1.141 0.795-1.871 0.795-0.687 0-1.283-0.237-1.796-0.713-1.773-1.648-0.619-4.613 1.796-4.613 0.191 0 0.504 0.041 0.697 0.091z"></path>
</symbol>

<symbol id="icon-ukraine-logo" viewBox="0 0 32 32">
<path fill="#ffda44" style="fill: var(--color1, #ffda44)" d="M16 32c8.837 0 16-7.163 16-16s-7.163-16-16-16c-8.837 0-16 7.163-16 16s7.163 16 16 16z"></path>
<path fill="#338af3" style="fill: var(--color2, #338af3)" d="M0 16c0-8.836 7.163-16 16-16s16 7.163 16 16z"></path>
</symbol>

<symbol id="icon-login" viewBox="0 0 32 32">
<path fill="none" stroke="#f4c550" style="stroke: var(--color3, #f4c550)" stroke-linejoin="round" stroke-linecap="round" stroke-miterlimit="4" stroke-width="3.2" d="M20 4h1.6c2.24 0 3.36 0 4.216 0.436 0.753 0.383 1.364 0.995 1.748 1.748 0.436 0.856 0.436 1.976 0.436 4.216v11.2c0 2.24 0 3.36-0.436 4.216-0.384 0.753-0.995 1.364-1.748 1.748-0.856 0.436-1.976 0.436-4.216 0.436h-1.6"></path>
<path fill="none" stroke="#f4c550" style="stroke: var(--color3, #f4c550)" stroke-linejoin="round" stroke-linecap="round" stroke-miterlimit="4" stroke-width="3.2" d="M13.333 9.333l6.667 6.667M20 16l-6.667 6.667M20 16h-16"></path>
</symbol>

<symbol id="icon-book-open" viewBox="0 0 32 32">
<path d="M4.9 2.56c-1.008 0.116-1.732 0.44-2.438 1.094-0.584 0.54-0.962 1.218-1.162 2.080-0.096 0.404-0.1 0.812-0.1 8.266s0.004 7.862 0.1 8.266c0.188 0.814 0.494 1.39 1.038 1.96 0.53 0.556 1.15 0.91 1.956 1.118 0.396 0.102 0.646 0.114 3.572 0.152 3.54 0.044 3.576 0.048 4.348 0.436 0.658 0.328 1.15 0.84 1.916 1.988 0.706 1.056 0.894 1.274 1.256 1.446 0.556 0.262 1.26 0.124 1.686-0.332 0.106-0.114 0.466-0.616 0.796-1.114 0.762-1.146 1.256-1.658 1.918-1.988 0.772-0.388 0.808-0.392 4.348-0.436 2.982-0.040 3.17-0.048 3.6-0.158 1.459-0.37 2.584-1.501 2.938-2.936l0.006-0.028 0.122-0.48v-7.868c0-7.48-0.004-7.886-0.1-8.292-0.175-0.837-0.596-1.556-1.183-2.098l-0.003-0.002c-0.521-0.495-1.181-0.85-1.915-1l-0.025-0.004c-0.412-0.088-0.74-0.096-3.468-0.094-3.216 0.004-3.738 0.038-4.726 0.296-1.235 0.35-2.288 1.012-3.104 1.896l-0.004 0.005-0.272 0.308-0.272-0.308c-0.821-0.89-1.877-1.553-3.069-1.891l-0.047-0.011c-0.94-0.242-1.438-0.276-4.452-0.296-0.322-0.005-0.702-0.009-1.083-0.009-0.765 0-1.528 0.013-2.287 0.037l0.111-0.003zM10.106 5.546c0.616 0.026 1.3 0.084 1.52 0.13 1.304 0.272 2.43 1.398 2.696 2.698 0.046 0.22 0.106 0.904 0.132 1.52 0.048 1.078 0.076 13.892 0.030 13.892-0.012 0-0.15-0.084-0.306-0.188-0.444-0.282-0.954-0.532-1.492-0.723l-0.054-0.017c-0.864-0.29-1.114-0.31-4.446-0.352-2.094-0.026-3.156-0.058-3.29-0.1-0.238-0.076-0.602-0.47-0.658-0.714-0.062-0.272-0.092-13.986-0.032-14.802 0.048-0.636 0.068-0.728 0.19-0.89 0.256-0.336 0.414-0.408 0.982-0.452 0.748-0.056 3.428-0.058 4.728-0.002zM27.036 5.58c0.174 0.057 0.321 0.156 0.435 0.285l0.001 0.001c0.222 0.222 0.258 0.29 0.296 0.566 0.058 0.404 0.060 14.722 0.002 15.124-0.019 0.215-0.113 0.405-0.256 0.546l-0 0c-0.11 0.13-0.247 0.233-0.403 0.301l-0.007 0.003c-0.134 0.042-1.196 0.074-3.29 0.1-3.332 0.042-3.582 0.062-4.446 0.352-0.592 0.208-1.102 0.458-1.578 0.759l0.032-0.019c-0.087 0.062-0.187 0.125-0.291 0.181l-0.015 0.007c-0.044 0-0.018-12.806 0.030-13.892 0.026-0.616 0.084-1.3 0.13-1.52 0.319-1.343 1.356-2.38 2.673-2.695l0.025-0.005c0.22-0.046 0.82-0.104 1.332-0.128 1.040-0.048 5.044-0.022 5.33 0.034z"></path>
</symbol>

<symbol id="icon-fill-heart" viewBox="0 0 35 32">
<path fill="#f4c550" style="fill: var(--color1, #f4c550)" d="M8.378 2.647c-1.731 0.287-3.235 1.102-4.378 2.272l-0.001 0.002c-1.407 1.425-2.276 3.385-2.276 5.547 0 0.232 0.010 0.461 0.029 0.687l-0.002-0.029c0.129 1.68 0.774 3.189 1.773 4.392l-0.010-0.013c0.207 0.256 3.43 3.516 7.159 7.244l6.783 6.778 6.783-6.778c3.729-3.728 6.953-6.988 7.159-7.244 0.989-1.19 1.633-2.699 1.761-4.353l0.002-0.027c0.018-0.199 0.028-0.43 0.028-0.663 0-2.182-0.888-4.157-2.323-5.582l-0-0c-1.059-1.062-2.414-1.829-3.931-2.166l-0.053-0.010c-0.582-0.128-2.070-0.177-2.688-0.089-1.428 0.201-2.699 0.751-3.762 1.562l0.020-0.014c-0.233 0.172-0.94 0.817-1.572 1.436l-1.148 1.121h-0.551l-1.11-1.085c-0.609-0.598-1.313-1.242-1.564-1.431-1.035-0.806-2.3-1.368-3.68-1.576l-0.044-0.005c-0.551-0.083-1.856-0.070-2.403 0.025z"></path>
</symbol>

<symbol id="icon-heart" viewBox="0 0 38 32">
<path d="M9.706 0.473c-4.975 0.684-8.698 4.973-8.698 10.022 0 2.26 0.719 4.369 2.121 6.228 0.422 0.559 14.816 14.964 15.1 15.113 0.323 0.167 1.039 0.167 1.361 0 0.333-0.173 14.714-14.593 15.155-15.197 1.399-1.913 2.065-3.897 2.065-6.144 0-0.006 0-0.013 0-0.021 0-5.089-3.765-9.299-8.662-9.995l-0.054-0.006c-0.413-0.060-0.889-0.094-1.374-0.094-1.684 0-3.271 0.412-4.667 1.14l0.056-0.027c-0.879 0.448-1.603 0.966-2.509 1.796l-0.735 0.673-0.529-0.54c-1.267-1.279-2.863-2.229-4.65-2.713l-0.073-0.017c-0.766-0.194-1.646-0.305-2.551-0.305-0.478 0-0.949 0.031-1.41 0.091l0.054-0.006zM12.246 3.372c1.102 0.19 2.084 0.595 2.94 1.172l-0.027-0.017c0.256 0.169 0.969 0.807 1.703 1.529 1.343 1.315 1.473 1.405 2.047 1.405s0.704-0.090 2.047-1.405c0.735-0.721 1.447-1.36 1.703-1.529 2.596-1.703 5.78-1.66 8.266 0.115 0.858 0.612 1.769 1.684 2.255 2.655 0.092 0.183 0.249 0.58 0.351 0.883 0.756 2.255 0.377 4.684-1.030 6.602-0.246 0.335-2.585 2.721-6.98 7.121l-6.609 6.618-6.247-6.24c-3.436-3.431-6.483-6.503-6.772-6.825-1.279-1.421-1.887-2.852-1.965-4.621-0.093-2.092 0.63-3.969 2.089-5.428 1.649-1.649 4.013-2.422 6.231-2.035z"></path>
</symbol>

<symbol id="icon-ellipse" viewBox="0 0 32 32">
<path fill="#fff" style="fill: var(--color1, #fff)" d="M32 16c0 8.837-7.163 16-16 16s-16-7.163-16-16c0-8.837 7.163-16 16-16s16 7.163 16 16z"></path>
<path fill="#38cd3e" style="fill: var(--color2, #38cd3e)" d="M26.667 16c0 5.891-4.776 10.667-10.667 10.667s-10.667-4.776-10.667-10.667c0-5.891 4.776-10.667 10.667-10.667s10.667 4.776 10.667 10.667z"></path>
</symbol>

<symbol id="icon-star" viewBox="0 0 32 32">
<path fill="#ffc531" style="fill: var(--color4, #ffc531)" d="M14.72 7.556c-0.686 1.345-1.17 2.226-1.67 3.097l0.214-0.405c-0.321 0.447-0.72 0.815-1.18 1.092l-0.018 0.010c-0.464 0.246-0.874 0.338-3.64 0.81-1.375 0.216-2.269 0.382-3.159 0.562l0.521-0.088c-0.088 0.036 0.186 0.34 1.92 2.122 1.288 1.322 2.090 2.188 2.202 2.378 0.31 0.518 0.45 1.008 0.474 1.64 0.016 0.48-0.036 0.94-0.374 3.266-0.214 1.488-0.372 2.706-0.346 2.706 0.024 0 1.19-0.562 2.59-1.248 1.466-0.72 2.692-1.288 2.892-1.342 0.458-0.12 1.25-0.12 1.708 0 0.2 0.054 1.426 0.622 2.892 1.342 1.4 0.686 2.566 1.248 2.59 1.248 0.026 0-0.132-1.218-0.346-2.706-0.338-2.326-0.39-2.786-0.374-3.266 0.024-0.632 0.164-1.122 0.474-1.64 0.112-0.19 0.91-1.052 2.2-2.378 1.728-1.778 2.010-2.088 1.92-2.122-0.379-0.094-1.273-0.259-2.172-0.41l-0.464-0.064c-2.766-0.472-3.176-0.564-3.64-0.81-0.4-0.214-0.94-0.71-1.198-1.102-0.286-0.466-0.77-1.347-1.238-2.238l-0.218-0.454c-0.63-1.239-1.056-2.019-1.493-2.791l0.213 0.409c-0.014 0-0.59 1.072-1.28 2.382z"></path>
</symbol>

</defs>
</svg>